<?xml version="1.0" encoding="UTF-8" standalone="no"?>
<svg
   xmlns:dc="http://purl.org/dc/elements/1.1/"
   xmlns:cc="http://creativecommons.org/ns#"
   xmlns:rdf="http://www.w3.org/1999/02/22-rdf-syntax-ns#"
   xmlns:svg="http://www.w3.org/2000/svg"
   xmlns="http://www.w3.org/2000/svg"
   xmlns:xlink="http://www.w3.org/1999/xlink"
   xmlns:sodipodi="http://sodipodi.sourceforge.net/DTD/sodipodi-0.dtd"
   xmlns:inkscape="http://www.inkscape.org/namespaces/inkscape"
   width="1024"
   height="1024"
   viewBox="0 0 270.93333 270.93334"
   version="1.1"
   id="svg919"
   inkscape:version="1.0.2 (e86c870879, 2021-01-15)"
   sodipodi:docname="profile.svg"
   inkscape:export-filename="./logo-1024.png"
   inkscape:export-xdpi="96"
   inkscape:export-ydpi="96">
  <defs
     id="defs913">
    <linearGradient
       inkscape:collect="always"
       id="linearGradient916">
      <stop
         style="stop-color:#bacdec;stop-opacity:1"
         offset="0"
         id="stop912" />
      <stop
         style="stop-color:#f5f7fc;stop-opacity:1"
         offset="1"
         id="stop914" />
    </linearGradient>
    <linearGradient
       inkscape:collect="always"
       id="linearGradient11135">
      <stop
         style="stop-color:#171942;stop-opacity:1"
         offset="0"
         id="stop11131" />
      <stop
         style="stop-color:#0e1028;stop-opacity:1"
         offset="1"
         id="stop11133" />
    </linearGradient>
    <linearGradient
       inkscape:collect="always"
       xlink:href="#linearGradient11135"
       id="linearGradient11137"
       x1="60.094524"
       y1="3.5395818"
       x2="60.094524"
       y2="139.67665"
       gradientUnits="userSpaceOnUse" />
    <linearGradient
       inkscape:collect="always"
       xlink:href="#linearGradient11135"
       id="linearGradient908"
       x1="-39.449654"
       y1="154.28761"
       x2="-39.449654"
       y2="160.21725"
       gradientUnits="userSpaceOnUse" />
    <linearGradient
       inkscape:collect="always"
       xlink:href="#linearGradient916"
       id="linearGradient918"
       x1="-42.212933"
       y1="160.98683"
       x2="-42.212933"
       y2="154.72655"
       gradientUnits="userSpaceOnUse" />
    <linearGradient
       inkscape:collect="always"
       xlink:href="#linearGradient11135"
       id="linearGradient957"
       gradientUnits="userSpaceOnUse"
       gradientTransform="translate(-15.08125,29.104164)"
       x1="-39.449654"
       y1="154.28761"
       x2="-39.449654"
       y2="160.21725" />
    <linearGradient
       inkscape:collect="always"
       xlink:href="#linearGradient916"
       id="linearGradient968"
       x1="-56.128983"
       y1="190.09096"
       x2="-56.128983"
       y2="183.42065"
       gradientUnits="userSpaceOnUse" />
  </defs>
  <sodipodi:namedview
     id="base"
     pagecolor="#ffffff"
     bordercolor="#666666"
     borderopacity="1.0"
     inkscape:pageopacity="0.0"
     inkscape:pageshadow="2"
     inkscape:zoom="0.98994949"
     inkscape:cx="330.49269"
     inkscape:cy="605.78298"
     inkscape:document-units="px"
     inkscape:current-layer="layer1"
     inkscape:document-rotation="0"
     showgrid="false"
     units="px"
     inkscape:window-width="3792"
     inkscape:window-height="2111"
     inkscape:window-x="3888"
     inkscape:window-y="0"
     inkscape:window-maximized="1" />
  <metadata
     id="metadata916">
    <rdf:RDF>
      <cc:Work
         rdf:about="">
        <dc:format>image/svg+xml</dc:format>
        <dc:type
           rdf:resource="http://purl.org/dc/dcmitype/StillImage" />
        <dc:title></dc:title>
      </cc:Work>
    </rdf:RDF>
  </metadata>
  <g
     inkscape:label="Layer 1"
     inkscape:groupmode="layer"
     id="layer1">
    <circle
       style="fill:url(#linearGradient968);fill-opacity:1;stroke:#f47854;stroke-width:0.529167;stroke-linecap:round;stroke-linejoin:round;stroke-miterlimit:5;stroke-dasharray:none;stroke-opacity:1"
       id="path960"
       sodipodi:type="arc"
       sodipodi:cx="-56.398296"
       sodipodi:cy="186.77243"
       sodipodi:rx="6.0848365"
       sodipodi:ry="6.0848365"
       sodipodi:start="4.2319871"
       sodipodi:end="4.23183"
       sodipodi:open="true"
       sodipodi:arc-type="arc"
       d="m -59.210316,181.37634 a 6.0848365,6.0848365 0 0 1 8.207999,2.58386 6.0848365,6.0848365 0 0 1 -2.583536,8.2081 6.0848365,6.0848365 0 0 1 -8.208201,-2.58321 6.0848365,6.0848365 0 0 1 2.58289,-8.20831" />
    <path
       id="path896"
       style="font-style:normal;font-variant:normal;font-weight:normal;font-stretch:normal;font-size:10.5833px;line-height:1.25;font-family:'Tajawal Black';-inkscape-font-specification:'Tajawal Black, ';letter-spacing:0px;word-spacing:0px;fill:url(#linearGradient918);fill-opacity:1;stroke:none;stroke-width:0.264583;stroke-opacity:1"
       d="m -59.348926,152.80823 c -0.77637,0.002 -1.84174,0.0287 -2.91797,0.30469 -0.59801,0.15379 -1.01594,0.69308 -1.01562,1.31055 v 0.48242 c -0.01,0.39998 0.19388,0.90802 0.54646,1.27468 0.0157,1.59826 0.006,3.19716 0.006,4.7956 4.1e-4,0.64987 0.46297,1.20757 1.10156,1.32813 0.60944,0.11478 1.29098,0.16015 2.08008,0.16015 1.026,0 1.96305,-0.1726 2.76367,-0.66015 0.0483,-0.0292 0.0705,-0.0909 0.11719,-0.12305 0.5872,0.5784 1.39224,0.7832 2.14649,0.7832 0.33805,0 0.6724,-0.098 1,-0.20508 0.14486,0.0515 0.29743,0.0779 0.45117,0.0781 h 1.27929 c 0.40035,0 0.78014,-0.17737 1.03711,-0.48437 0.63579,0.36277 1.33589,0.61132 2.08594,0.61132 0.53933,0 1.06423,-0.13221 1.55469,-0.35547 0.2225,0.14892 0.48421,0.22846 0.75195,0.22852 h 1.58789 c 0.17765,-1.8e-4 0.35353,-0.0354 0.51758,-0.10352 0.16466,0.0684 0.34122,0.1036 0.51953,0.10352 h 1.52344 c 0.20148,-3.6e-4 0.40033,-0.0457 0.58203,-0.13281 0.1817,0.0871 0.38055,0.13245 0.58203,0.13281 h 1.59766 c 0.50061,-3.2e-4 0.94535,-0.27461 1.17888,-0.69073 0.0758,-0.14216 0.23188,-0.13458 0.30788,-0.004 0.2329,0.41845 0.67894,0.69457 1.18121,0.69488 h 1.6289 c 0.4271,-2.9e-4 0.82897,-0.20231 1.08399,-0.54492 0.60258,0.3899 1.27109,0.67187 1.98633,0.67187 0.67218,0 1.27382,-0.34756 1.85351,-0.6914 0.2541,0.35443 0.66351,0.56459 1.09961,0.56445 h 1.58594 c 0.23328,4.6e-4 0.46271,-0.0594 0.66601,-0.17383 0.20157,0.11344 0.42886,0.17329 0.66016,0.17383 h 1.58789 c 0.2597,1.9e-4 0.51397,-0.0744 0.73242,-0.21484 0.21789,0.14009 0.47143,0.21466 0.73047,0.21484 h 1.60742 c 0.37375,-1.7e-4 0.73078,-0.15499 0.98633,-0.42773 0.63259,0.33403 1.32564,0.55468 2.06836,0.55468 0.52456,0 1.04471,-0.10627 1.55273,-0.29101 0.50861,-0.18495 0.97722,-0.42998 1.37696,-0.81641 0.34791,-0.33655 0.48943,-0.83337 0.37109,-1.30273 0.25633,-0.25406 0.40049,-0.60003 0.40039,-0.96094 v -0.58399 c 0,-0.963 -0.30189,-1.92186 -0.93945,-2.6289 -0.70304,-0.78242 -1.76704,-1.17774 -2.82617,-1.17774 -0.91024,0 -1.79082,0.33225 -2.49024,0.89844 -0.52581,-0.55395 -1.3507,-0.89844 -2.13476,-0.89844 -0.005,-2e-5 -0.009,-2e-5 -0.0137,0 -0.51919,0.005 -1.03161,0.19835 -1.48829,0.48047 -0.0154,-0.009 -0.0216,-0.0306 -0.0371,-0.0391 -0.48791,-0.26877 -1.11161,-0.44141 -1.73242,-0.44141 h -0.006 c -0.28904,0.001 -0.56432,0.11215 -0.83984,0.20899 -0.14894,-0.0544 -0.30628,-0.0821 -0.46484,-0.082 h -1.35352 c -0.38612,6e-4 -0.75357,0.1662 -1.00977,0.45508 -0.59152,-0.34442 -1.24321,-0.58204 -1.93359,-0.58204 -0.60637,0 -1.1881,0.18108 -1.72852,0.44727 v -0.86328 c -5e-4,-0.74624 -0.60532,-1.35106 -1.35156,-1.35156 h -1.6289 c -0.51505,3.2e-4 -0.97097,0.29066 -1.19857,0.7271 -0.0956,0.16658 -0.17785,0.16517 -0.26861,0.004 -0.22685,-0.43882 -0.68406,-0.73105 -1.20079,-0.73138 -0.70015,0 -1.5911,0.006 -2.47071,0.21679 -0.60718,0.14655 -1.03503,0.68984 -1.03515,1.31446 -0.0111,0.37352 -0.463,0.44086 -0.46485,0.005 v -0.31181 c -4.9e-4,-1.01458 -1.07646,-1.66739 -1.97656,-1.19922 l -1.29883,0.67578 c -0.26719,0.13912 -0.63545,0.40282 -0.83984,0.82226 -0.10565,0.21681 -0.0723,0.30498 -0.0898,0.45899 -0.36406,-0.0976 -0.72598,-0.21485 -1.10547,-0.21485 -0.95449,0 -1.89899,0.34203 -2.60938,0.96875 -0.64149,-0.65781 -1.4119,-0.83452 -2.13672,-0.875 -0.71791,-0.0401 -1.43851,0.0917 -2.12695,0.40235 -0.15051,-0.51185 -0.37738,-0.99822 -0.76172,-1.36719 l -0.004,-0.004 c -0.77964,-0.7431 -1.85236,-1.01953 -2.97657,-1.01953 h -0.002 z m 38.4082,2.86914 c 0.007,0.008 0.013,0.0202 0.01,0.0176 -0.005,-0.005 -0.005,-0.0121 -0.01,-0.0176 z"
       sodipodi:nodetypes="cccccccsccsccscsccccccccccccccsccccccccccsscccscscscccscccccscccccccccccccscscscscsccccc" />
    <rect
       style="fill:#4679cf;fill-opacity:1;fill-rule:evenodd;stroke:none;stroke-width:22.5167;stroke-linecap:round;stroke-linejoin:round"
       id="rect858"
       width="270.93332"
       height="144.33818"
       x="2.4844971e-07"
       y="126.59516" />
    <rect
       style="fill:#f47854;fill-opacity:1;fill-rule:evenodd;stroke:none;stroke-width:18.3361;stroke-linecap:round;stroke-linejoin:round"
       id="rect856"
       width="270.93332"
       height="95.715866"
       x="2.4844971e-07"
       y="71.20977" />
    <rect
       style="fill:url(#linearGradient11137);fill-opacity:1;fill-rule:evenodd;stroke:none;stroke-width:22.5167;stroke-linecap:round;stroke-linejoin:round"
       id="rect854"
       width="270.93332"
       height="144.33818"
       x="2.4844971e-07"
       y="-4.031315e-08" />
    <path
       id="path891"
       style="font-style:normal;font-variant:normal;font-weight:normal;font-stretch:normal;font-size:10.5833px;line-height:1.25;font-family:'Tajawal Black';-inkscape-font-specification:'Tajawal Black, ';letter-spacing:0px;word-spacing:0px;fill:url(#linearGradient908);fill-opacity:1;stroke:none;stroke-width:0.264583;stroke-opacity:1"
       d="m -27.670482,156.6371 c 0.39602,-0.39645 0.72788,-0.57978 1.20423,-0.58209 0.4304,0 0.75234,0.0917 1.08395,0.27517 0.33866,0.18345 0.5715,0.42686 0.6985,0.73025 0.30667,-0.66764 0.82116,-0.99897 1.48998,-1.00542 0.58561,0 0.95342,0.16581 1.22152,0.49742 0.27517,0.32455 0.41275,0.84314 0.41275,1.55575 v 2.87865 h -1.60866 v -2.42357 c 0,-0.43745 -0.008,-0.74436 -0.14202,-0.92075 -0.127,-0.18345 -0.25713,-0.27517 -0.56758,-0.27517 -0.38805,0 -0.47086,0.15522 -0.71074,0.46567 l -0.0423,3.15382 h -1.58749 v -2.61407 c 0,-0.381 -0.008,-0.64558 -0.14203,-0.79375 -0.127,-0.14817 -0.26771,-0.22225 -0.59933,-0.22225 -0.381,0 -0.42147,0.0741 -0.58374,0.22225 v 3.40782 h -1.5875 v -4.80482 h 1.35467 z m 11.51466,2.45532 h -3.24908 c 0.0211,0.23989 0.13402,0.45155 0.33867,0.63499 0.20461,0.18345 0.43038,0.27517 0.67733,0.27517 h 0.0741 c 0.42333,0 0.89958,-0.14817 1.42875,-0.4445 l 0.37041,0.8255 c -0.21167,0.20461 -0.51153,0.37747 -0.89958,0.51858 -0.38805,0.14111 -0.75141,0.21167 -1.09008,0.21167 -0.83961,0 -1.49224,-0.22578 -1.95791,-0.67733 -0.4445,-0.43745 -0.66675,-1.04775 -0.66675,-1.83092 0,-0.75494 0.254,-1.37935 0.762,-1.87324 0.47272,-0.45155 1.07244,-0.67733 1.79916,-0.67733 0.77611,0 1.38289,0.24342 1.82033,0.73025 0.39511,0.43744 0.59267,1.01246 0.59267,1.72507 z m -3.06654,-1.09008 h 1.50021 c -0.0353,-0.5715 -0.32807,-0.85725 -0.87842,-0.85725 -0.43135,0 -0.711,0.19504 -0.83896,0.58511 -0.0627,0.19811 -0.11818,0.28407 -0.11818,0.28407 0,0 0.13406,-0.014 0.33535,-0.0119 z m -12.85074,-1.94733 q 1.20649,0 1.87324,0.83608 0.55033,0.68791 0.55033,1.70391 0,1.18533 -0.85724,1.92616 -0.68792,0.59267 -1.57691,0.59267 -1.016,0 -1.74625,-0.77258 -0.66675,-0.70909 -0.66675,-1.74625 0,-1.17475 0.70908,-1.88383 0.65617,-0.65616 1.7145,-0.65616 z m -0.81492,2.53999 q 0,1.35466 0.8255,1.35466 0.80433,0 0.80433,-1.35466 0,-1.43933 -0.81491,-1.43933 -0.81492,0 -0.81492,1.43933 z m -8.15971,2.39183 v -5.5418 l -0.30455,-0.0924 c -0.17193,-0.0458 -0.25666,-0.16281 -0.25331,-0.33199 v -0.55361 c 0.65658,-0.1577 1.48536,-0.17942 2.15594,-0.17942 v 2.61407 h 2.66699 v -2.61407 h 1.62983 v 6.69923 h -1.62983 v -2.79399 h -2.66699 v 2.79399 z m -1.14403,-4.80482 -1.44225,1.95791 1.42108,2.84691 h -1.52296 l -1.03716,-2.13783 v 2.13783 h -1.58749 v -5.65058 c -0.002,-0.23537 0.0115,-0.35613 0.28945,-0.50067 l 1.29804,-0.67498 v 3.00566 l 0.71966,-0.98425 z m -4.66618,0.64558 -0.48684,0.84666 q -0.53975,-0.52916 -1.14299,-0.52916 -0.52917,0 -0.86783,0.42333 -0.32809,0.41275 -0.32809,1.06891 0,0.60325 0.3175,0.99483 0.3175,0.381 0.81492,0.381 0.69849,0 1.17474,-0.5715 l 0.56092,0.85725 q -0.83608,0.81492 -1.85208,0.81492 -1.25941,0 -1.98966,-0.78317 -0.635,-0.67733 -0.635,-1.72508 0,-1.16416 0.81492,-1.90499 0.70908,-0.64558 1.74624,-0.64558 1.25941,0 1.87325,0.77258 z m -4.93181,4.15924 h -1.28058 l -0.10584,-0.43392 c -0.35277,0.37395 -0.8008,0.56092 -1.34407,0.56092 -1.06539,0 -1.59808,-0.52564 -1.59808,-1.57692 0,-0.51505 0.21872,-0.91369 0.65616,-1.19591 0.47272,-0.30339 1.17827,-0.45508 2.11666,-0.45508 h 0.0106 v -0.0106 c 0,-0.26106 -0.0459,-0.43039 -0.13759,-0.508 -0.0847,-0.0847 -0.26811,-0.127 -0.55033,-0.127 -0.39103,0 -0.74667,0.0929 -1.06694,0.27863 l -0.24139,-0.51032 c -0.13066,-0.31738 -0.009,-0.44686 0.19927,-0.57055 0.90676,-0.44361 2.3428,-0.4018 2.87647,0.19899 0.31045,0.381 0.46567,0.90664 0.46567,1.57691 z m -1.767,-2.16398 c -0.26356,0.018 -0.48594,0.0797 -0.66716,0.1849 -0.21167,0.127 -0.3175,0.2928 -0.3175,0.49741 v 0.0106 c 0.0212,0.3175 0.15173,0.47978 0.39158,0.48683 h 0.0212 c 0.19755,0 0.36689,-0.067 0.508,-0.20108 0.14817,-0.14111 0.22578,-0.30692 0.23283,-0.49742 l -2e-5,-0.33545 c -0.002,-0.11128 0.0408,-0.16785 0.0408,-0.16785 0,0 -0.0617,0.0112 -0.20978,0.0221 z m -7.82147,2.15339 v -5.57403 l -0.29488,-0.0899 c -0.17963,-0.0474 -0.26242,-0.20067 -0.25815,-0.37308 v -0.51605 c 0.87792,-0.22516 1.85159,-0.26102 2.58503,-0.26256 0.91016,0 1.59102,0.21519 2.04257,0.64558 0.35278,0.33867 0.52917,0.78669 0.52917,1.34408 0,0.31044 -0.14111,0.59972 -0.42333,0.86783 -0.28222,0.26105 -0.58208,0.39158 -0.89958,0.39158 h -0.0741 v 0.0106 c 0.47978,0.0494 0.86078,0.22579 1.143,0.52917 0.28222,0.29633 0.42333,0.68086 0.42333,1.15358 0,0.67733 -0.2928,1.19239 -0.87841,1.54516 -0.508,0.31045 -1.19592,0.46567 -2.06375,0.46567 -0.73377,0 -1.34408,-0.0459 -1.83091,-0.13759 z m 1.62983,-5.32345 v 1.15363 h 0.65617 c 0.26811,0 0.45508,-0.0494 0.56091,-0.14816 0.11289,-0.0988 0.16933,-0.26811 0.16933,-0.508 0,-0.46567 -0.30339,-0.6985 -0.91016,-0.6985 -0.12017,0 -0.2384,0.01 -0.35469,0.029 -0.10858,0.0174 -0.19269,0.0363 -0.19269,0.0363 0,0 0.071,0.0431 0.0711,0.13572 z m 0,2.58785 v 1.50794 c 0.17639,0.0776 0.36689,0.11642 0.5715,0.11642 0.59267,0 0.889,-0.25753 0.889,-0.77258 0,-0.66322 -0.29986,-0.99483 -0.89958,-0.99483 h -0.43974 c -0.10772,2.8e-4 -0.16332,-0.0337 -0.16332,-0.0337 0,0 0.0437,0.0411 0.0421,0.17676 z" />
    <path
       id="path910"
       style="font-style:normal;font-variant:normal;font-weight:normal;font-stretch:normal;font-size:10.5833px;line-height:1.25;font-family:'Tajawal Black';-inkscape-font-specification:'Tajawal Black, ';letter-spacing:0px;word-spacing:0px;fill:none;fill-opacity:1;stroke:#f47854;stroke-width:0.264583;stroke-opacity:1"
       d="m -59.348926,152.80823 c -0.77637,0.002 -1.84174,0.0287 -2.91797,0.30469 -0.59801,0.15379 -1.01594,0.69308 -1.01562,1.31055 v 0.48242 c -0.01,0.39998 0.19388,0.90802 0.54646,1.27468 0.0157,1.59826 0.006,3.19716 0.006,4.7956 4.1e-4,0.64987 0.46297,1.20757 1.10156,1.32813 0.60944,0.11478 1.29098,0.16015 2.08008,0.16015 1.026,0 1.96305,-0.1726 2.76367,-0.66015 0.0483,-0.0292 0.0705,-0.0909 0.11719,-0.12305 0.5872,0.5784 1.39224,0.7832 2.14649,0.7832 0.33805,0 0.6724,-0.098 1,-0.20508 0.14486,0.0515 0.29743,0.0779 0.45117,0.0781 h 1.27929 c 0.40035,0 0.78014,-0.17737 1.03711,-0.48437 0.63579,0.36277 1.33589,0.61132 2.08594,0.61132 0.53933,0 1.06423,-0.13221 1.55469,-0.35547 0.2225,0.14892 0.48421,0.22846 0.75195,0.22852 h 1.58789 c 0.17765,-1.8e-4 0.35353,-0.0354 0.51758,-0.10352 0.16466,0.0684 0.34122,0.1036 0.51953,0.10352 h 1.52344 c 0.20148,-3.6e-4 0.40033,-0.0457 0.58203,-0.13281 0.1817,0.0871 0.38055,0.13245 0.58203,0.13281 h 1.59766 c 0.50061,-3.2e-4 0.94535,-0.27461 1.17888,-0.69073 0.0758,-0.14216 0.23188,-0.13458 0.30788,-0.004 0.2329,0.41845 0.67894,0.69457 1.18121,0.69488 h 1.6289 c 0.4271,-2.9e-4 0.82897,-0.20231 1.08399,-0.54492 0.60258,0.3899 1.27109,0.67187 1.98633,0.67187 0.67218,0 1.27382,-0.34756 1.85351,-0.6914 0.2541,0.35443 0.66351,0.56459 1.09961,0.56445 h 1.58594 c 0.23328,4.6e-4 0.46271,-0.0594 0.66601,-0.17383 0.20157,0.11344 0.42886,0.17329 0.66016,0.17383 h 1.58789 c 0.2597,1.9e-4 0.51397,-0.0744 0.73242,-0.21484 0.21789,0.14009 0.47143,0.21466 0.73047,0.21484 h 1.60742 c 0.37375,-1.7e-4 0.73078,-0.15499 0.98633,-0.42773 0.63259,0.33403 1.32564,0.55468 2.06836,0.55468 0.52456,0 1.04471,-0.10627 1.55273,-0.29101 0.50861,-0.18495 0.97722,-0.42998 1.37696,-0.81641 0.34791,-0.33655 0.48943,-0.83337 0.37109,-1.30273 0.25633,-0.25406 0.40049,-0.60003 0.40039,-0.96094 v -0.58399 c 0,-0.963 -0.30189,-1.92186 -0.93945,-2.6289 -0.70304,-0.78242 -1.76704,-1.17774 -2.82617,-1.17774 -0.91024,0 -1.79082,0.33225 -2.49024,0.89844 -0.52581,-0.55395 -1.3507,-0.89844 -2.13476,-0.89844 -0.005,-2e-5 -0.009,-2e-5 -0.0137,0 -0.51919,0.005 -1.03161,0.19835 -1.48829,0.48047 -0.0154,-0.009 -0.0216,-0.0306 -0.0371,-0.0391 -0.48791,-0.26877 -1.11161,-0.44141 -1.73242,-0.44141 h -0.006 c -0.28904,0.001 -0.56432,0.11215 -0.83984,0.20899 -0.14894,-0.0544 -0.30628,-0.0821 -0.46484,-0.082 h -1.35352 c -0.38612,6e-4 -0.75357,0.1662 -1.00977,0.45508 -0.59152,-0.34442 -1.24321,-0.58204 -1.93359,-0.58204 -0.60637,0 -1.1881,0.18108 -1.72852,0.44727 v -0.86328 c -5e-4,-0.74624 -0.60532,-1.35106 -1.35156,-1.35156 h -1.6289 c -0.51505,3.2e-4 -0.97097,0.29066 -1.19857,0.7271 -0.0956,0.16658 -0.17785,0.16517 -0.26861,0.004 -0.22685,-0.43882 -0.68406,-0.73105 -1.20079,-0.73138 -0.70015,0 -1.5911,0.006 -2.47071,0.21679 -0.60718,0.14655 -1.03503,0.68984 -1.03515,1.31446 -0.0111,0.37352 -0.463,0.44086 -0.46485,0.005 v -0.31181 c -4.9e-4,-1.01458 -1.07646,-1.66739 -1.97656,-1.19922 l -1.29883,0.67578 c -0.26719,0.13912 -0.63545,0.40282 -0.83984,0.82226 -0.10565,0.21681 -0.0723,0.30498 -0.0898,0.45899 -0.36406,-0.0976 -0.72598,-0.21485 -1.10547,-0.21485 -0.95449,0 -1.89899,0.34203 -2.60938,0.96875 -0.64149,-0.65781 -1.4119,-0.83452 -2.13672,-0.875 -0.71791,-0.0401 -1.43851,0.0917 -2.12695,0.40235 -0.15051,-0.51185 -0.37738,-0.99822 -0.76172,-1.36719 l -0.004,-0.004 c -0.77964,-0.7431 -1.85236,-1.01953 -2.97657,-1.01953 h -0.002 z m 38.4082,2.86914 c 0.007,0.008 0.013,0.0202 0.01,0.0176 -0.005,-0.005 -0.005,-0.0121 -0.01,-0.0176 z"
       sodipodi:nodetypes="cccccccsccsccscsccccccccccccccsccccccccccsscccscscscccscccccscccccccccccccscscscscsccccc" />
    <path
       id="path940"
       style="font-style:normal;font-variant:normal;font-weight:normal;font-stretch:normal;font-size:10.5833px;line-height:1.25;font-family:'Tajawal Black';-inkscape-font-specification:'Tajawal Black, ';letter-spacing:0px;word-spacing:0px;fill:url(#linearGradient957);fill-opacity:1;stroke:none;stroke-width:0.264583;stroke-opacity:1"
       d="m -56.128981,190.09096 v -5.5418 l -0.30455,-0.0924 c -0.17193,-0.0458 -0.25666,-0.16281 -0.25331,-0.33199 v -0.55361 c 0.65658,-0.1577 1.48536,-0.17942 2.15594,-0.17942 v 2.61407 h 1.608657 v -2.61407 h 1.62983 v 6.69923 h -1.62983 v -2.79399 h -1.608657 v 2.79399 z m -5.249241,-0.0106 v -5.57403 l -0.29488,-0.0899 c -0.17963,-0.0474 -0.26242,-0.20067 -0.25815,-0.37308 v -0.51605 c 0.87792,-0.22516 1.85159,-0.26102 2.58503,-0.26256 0.91016,0 1.59102,0.21519 2.04257,0.64558 0.35278,0.33867 0.52917,0.78669 0.52917,1.34408 0,0.31044 -0.14111,0.59972 -0.42333,0.86783 -0.28222,0.26105 -0.58208,0.39158 -0.89958,0.39158 h -0.0741 v 0.0106 c 0.47978,0.0494 0.86078,0.22579 1.143,0.52917 0.28222,0.29633 0.42333,0.68086 0.42333,1.15358 0,0.67733 -0.2928,1.19239 -0.87841,1.54516 -0.508,0.31045 -1.19592,0.46567 -2.06375,0.46567 -0.73377,0 -1.34408,-0.0459 -1.83091,-0.13759 z m 1.62983,-5.32345 v 1.15363 h 0.65617 c 0.26811,0 0.45508,-0.0494 0.56091,-0.14816 0.11289,-0.0988 0.16933,-0.26811 0.16933,-0.508 0,-0.46567 -0.30339,-0.6985 -0.91016,-0.6985 -0.12017,0 -0.2384,0.01 -0.35469,0.029 -0.10858,0.0174 -0.19269,0.0363 -0.19269,0.0363 0,0 0.071,0.0431 0.0711,0.13572 z m 0,2.58785 v 1.50794 c 0.17639,0.0776 0.36689,0.11642 0.5715,0.11642 0.59267,0 0.889,-0.25753 0.889,-0.77258 0,-0.66322 -0.29986,-0.99483 -0.89958,-0.99483 h -0.43974 c -0.10772,2.8e-4 -0.16332,-0.0337 -0.16332,-0.0337 0,0 0.0437,0.0411 0.0421,0.17676 z"
       sodipodi:nodetypes="cccccccccccccccccccccccscscccscsccccscssccscccssscccc" />
  </g>
</svg>
