<?xml version="1.0" encoding="UTF-8" standalone="no"?>
<!-- Created with Inkscape (http://www.inkscape.org/) -->
<svg xmlns:inkscape="http://www.inkscape.org/namespaces/inkscape" xmlns:rdf="http://www.w3.org/1999/02/22-rdf-syntax-ns#" xmlns="http://www.w3.org/2000/svg" xmlns:cc="http://creativecommons.org/ns#" xmlns:dc="http://purl.org/dc/elements/1.1/" xmlns:sodipodi="http://sodipodi.sourceforge.net/DTD/sodipodi-0.dtd" id="svg2" sodipodi:docname="_svgclean2.svg" viewBox="0 0 326.92 330.76" version="1.1" inkscape:version="0.48.3.1 r9886">
  <sodipodi:namedview id="base" bordercolor="#666666" inkscape:pageshadow="2" inkscape:window-y="0" pagecolor="#ffffff" inkscape:window-maximized="0" inkscape:zoom="0.52073327" inkscape:window-x="0" inkscape:window-height="645" showgrid="false" borderopacity="1.0" inkscape:current-layer="layer1" inkscape:cx="-149.55582" inkscape:cy="165.38383" inkscape:window-width="674" inkscape:pageopacity="0.0" inkscape:document-units="px"/>
  <g id="layer1" inkscape:label="Capa 1" inkscape:groupmode="layer" transform="translate(-208.58 -360.8)">
    <g id="g3809" inkscape:export-ydpi="90" inkscape:export-xdpi="90">
      <path id="path2985" sodipodi:rx="161.31099" sodipodi:ry="163.23135" style="stroke:#000000;stroke-width:4.3;stroke-opacity:.55080;fill:#fcb900" sodipodi:type="arc" d="m389.83 174.75c0 90.15-72.221 163.23-161.31 163.23-89.09 0-161.31-73.081-161.31-163.23 0-90.15 72.221-163.23 161.31-163.23 89.09 0 161.31 73.081 161.31 163.23z" transform="translate(143.52,351.43)" sodipodi:cy="174.75357" sodipodi:cx="228.52391"/>
      
      <path id="path2985-4" sodipodi:rx="161.31099" sodipodi:ry="163.23135" style="stroke:#000000;stroke-width:4.3;stroke-opacity:.55080;fill:#fc0a00" sodipodi:type="arc" d="m389.83 174.75c0 90.15-72.221 163.23-161.31 163.23-89.09 0-161.31-73.081-161.31-163.23 0-90.15 72.221-163.23 161.31-163.23 12.339 0 24.638 1.4327 36.655 4.27l-36.65 158.96z" transform="translate(143.52,351.43)" sodipodi:cy="174.75357" sodipodi:cx="228.52391" sodipodi:end="4.9416218" sodipodi:start="0"/>
      
      <path id="path2985-7" sodipodi:rx="161.31099" sodipodi:ry="163.23135" style="stroke:#000000;stroke-width:4.3;stroke-opacity:.55080;fill:#153ca9" sodipodi:type="arc" d="m389.83 174.75c0 90.15-72.221 163.23-161.31 163.23-89.09 0-161.31-73.081-161.31-163.23 0-18.33 3.0511-36.529 9.0253-53.834l152.29 53.834z" transform="translate(143.52,351.43)" sodipodi:cy="174.75357" sodipodi:cx="228.52391" sodipodi:end="3.4776855" sodipodi:start="0"/>
      
      <path id="path2985-1" sodipodi:rx="161.31099" sodipodi:ry="163.23135" style="stroke:#000000;stroke-width:4.3;stroke-opacity:.55080;fill:#06cb00" sodipodi:type="arc" d="m389.83 174.75c0 90.15-72.221 163.23-161.31 163.23-49.766 0-96.747-23.244-127.31-62.988l127.31-100.24z" transform="translate(143.52,351.43)" sodipodi:cy="174.75357" sodipodi:cx="228.52391" sodipodi:end="2.4803257" sodipodi:start="0"/>
    </g>
  </g>
  <metadata id="metadata10">
    <rdf:RDF>
      <cc:Work>
        <dc:format>image/svg+xml</dc:format>
        <dc:type rdf:resource="http://purl.org/dc/dcmitype/StillImage"/>
        <cc:license rdf:resource="http://creativecommons.org/licenses/publicdomain/"/>
        <dc:publisher>
          <cc:Agent rdf:about="http://openclipart.org/">
            <dc:title>Openclipart</dc:title>
          </cc:Agent>
        </dc:publisher>
      </cc:Work>
      <cc:License rdf:about="http://creativecommons.org/licenses/publicdomain/">
        <cc:permits rdf:resource="http://creativecommons.org/ns#Reproduction"/>
        <cc:permits rdf:resource="http://creativecommons.org/ns#Distribution"/>
        <cc:permits rdf:resource="http://creativecommons.org/ns#DerivativeWorks"/>
      </cc:License>
    </rdf:RDF>
  </metadata>
</svg>
