<svg xmlns="http://www.w3.org/2000/svg" viewBox="0 0 2048 2048" style="enable-background:new 0 0 2048 2048" xml:space="preserve"><style>.st11{fill:#542a1a}.st14{fill:#ea6726}</style><g id="Layer_4"><linearGradient id="SVGID_1_" gradientUnits="userSpaceOnUse" x1="280.28" y1="1024" x2="1767.72" y2="1024"><stop offset="0" style="stop-color:#fedc52"/><stop offset=".995" style="stop-color:#fcb117"/></linearGradient><circle cx="1024" cy="1024" r="743.72" style="fill:url(#SVGID_1_)"/><g style="opacity:.81"><path d="M540.23 770.15c-2.07 0-4.16-.21-6.27-.66-16.21-3.44-26.55-19.38-23.11-35.58 21.98-103.42 83.1-188.9 176.75-247.22 76.68-47.75 173.16-74.89 264.59-74.41 16.57.08 29.93 13.58 29.85 30.15-.08 16.52-13.5 29.85-30 29.85h-1.93c-130.25 0-337.77 72.7-380.58 274.11-2.98 14.1-15.44 23.76-29.3 23.76z" style="fill:#fff"/></g><path class="st11" d="M1331.11 875.54c-7.73 0-15.05-4.51-18.32-11.96-1.01-2.17-3.76-7.56-4.76-9.03-14.4-21.16-46.77-34.83-82.46-34.83-33.17 0-63.6 11.81-79.43 30.82-3.16 3.79-5.61 7.76-7.28 11.82-4.23 10.2-15.92 15.05-26.13 10.83-10.21-4.23-15.05-15.92-10.83-26.13 3.22-7.78 7.76-15.22 13.5-22.11 23.58-28.32 64.76-45.22 110.17-45.22 49.3 0 93.56 20.05 115.53 52.32 3.45 5.07 8.06 14.78 8.6 16.14 4.06 10.27-.98 21.89-11.25 25.95-2.41.95-4.89 1.4-7.34 1.4zm-18.6-12.66c.04.1.12.32.26.63-.09-.21-.18-.42-.26-.63zM927.79 875.54c-7.73 0-15.05-4.51-18.31-11.95-1.01-2.17-3.77-7.57-4.76-9.03-14.4-21.16-46.77-34.83-82.46-34.83-33.17 0-63.6 11.81-79.43 30.82-3.16 3.79-5.61 7.76-7.28 11.82-4.23 10.21-15.92 15.05-26.13 10.83-10.21-4.23-15.05-15.92-10.83-26.13 3.22-7.78 7.76-15.22 13.5-22.11 23.58-28.32 64.76-45.22 110.17-45.22 49.3 0 93.56 20.05 115.53 52.32 3.44 5.05 8.05 14.76 8.59 16.12 4.07 10.27-.96 21.89-11.23 25.96-2.42.94-4.91 1.4-7.36 1.4zm-18.6-12.64c.04.1.12.31.25.61-.09-.2-.17-.4-.25-.61z"/><circle class="st14" cx="653.03" cy="1099.35" r="120.64"/><circle class="st14" cx="1395.92" cy="1099.35" r="120.64"/><g><path class="st11" d="M1026.52 1439.13c-43.57 0-86.41-6.78-127.31-20.15-39.81-13.01-77.05-32-110.7-56.44-33.51-24.35-62.67-53.53-86.67-86.75-24.49-33.9-43.06-71.26-55.19-111.04-3.22-10.57 2.73-21.74 13.3-24.96 10.56-3.22 21.74 2.73 24.96 13.3 44.87 147.17 182.15 246.04 341.6 246.04 158.15 0 293.95-98.84 337.93-245.94 3.16-10.58 14.31-16.6 24.89-13.43 10.58 3.16 16.6 14.31 13.43 24.89-11.92 39.86-30.14 77.24-54.17 111.09-23.62 33.28-52.35 62.48-85.41 86.81-68.08 50.1-149.92 76.58-236.66 76.58z"/></g><path d="M1120.66 1346.15c-14.69-11.72-36.64-7.54-49.67 8.78l28.31-35.48c14.04-17.59 12.64-42.03-3.11-54.6-15.73-12.55-40-8.59-54.04 9L926.31 1418.3l128.36-160.14c16.12-20.21 14.52-48.34-3.59-62.78-18.1-14.44-45.83-9.72-61.96 10.49l-16.95 21.24c13.58-17.03 12.19-40.69-3.1-52.89-15.26-12.18-38.83-8.42-52 8.09l-137.11 171.1c-3.16-5.57-3.91-15.78 2.37-43.08 15.35-66.97-10.77-103.02-42.78-97-35.13 6.63-17.26 54.22-30.18 98.8-10.74 36.99-18.79 74.97-29.13 109.06-14.59 47.95-11.01 91.12 3.72 127.36-18.76 38.78-56.11 79.25-71.47 95.02 53.9 35.87 120.04 68.56 182.81 88.32 13.55-15.8 29.41-43.53 58.78-67.22 16.92-.68 32.98-4.65 47.03-12.36 62.43-34.26 117.31-124.21 117.31-124.21.74-.93 1.25-1.98 1.6-3.1l103.1-128.47c13.02-16.34 12.21-38.67-2.46-50.38z" style="fill:#f1a221"/></g></svg>